{"title":"Drive.Angry.2011.TS.x264.Feel-Free","uid":6227408,"size":791869650,"categoryP":"video","categoryS":"movies","magnet":"?xt=urn:btih:db25b1600173e7f19191b324524d049335af3a57&amp;dn=Drive.Angry.2011.TS.x264.Feel-Free&amp;tr=udp%3A%2F%2Ftracker.openbittorrent.com%3A80&amp;tr=udp%3A%2F%2Fopen.demonii.com%3A1337&amp;tr=udp%3A%2F%2Ftracker.coppersurfer.tk%3A6969&amp;tr=udp%3A%2F%2Fexodus.desync.com%3A6969","seeders":0,"leechers":1,"uploader":"hiest","files":-1,"time":1299572083,"description":"\n######## ######## ######## ##          ######## ########  ######## \n##       ##       ##       ##          ##       ##     ## ##       \n##       ##       ##       ##          ##       ##     ## ##       \n######   ######   ######   ##          ######   ########  ######   \n##       ##       ##       ##          ##       ##   ##   ##       \n##       ##       ##       ##          ##       ##    ##  ##       \n##       ######## ######## ########    ##       ##     ## ######## \n\nGenre:Action | Fantasy | Thriller \nLanguage:English\nIMDb: &lt;a href=&quot;\nhttp://www.imdb.com/title/tt1502404/&quot; rel=&quot;nofollow&quot; target=&quot;_NEW&quot;&gt;\nhttp://www.imdb.com/title/tt1502404/&lt;/a&gt;\nSource:Cinedub/Imagine Thx.\nSubtitles:Romana\n\nFormat : MPEG-4\nFormat profile : Base Media\nCodec ID : isom\nFile size : 753 MiB\nDuration : 1h 32mn\nOverall bit rate : 1 135 Kbps\nMovie name : Drive.Angry.2011.TS.x264.Feel-Free\n\nVideo\nFormat settings, CABAC : Yes\nFormat settings, ReFrames : 4 frames\nFormat settings, GOP : M=4, N=12\nCodec ID : avc1\nCodec ID/Info : Advanced Video Coding\nDuration : 1h 32mn\nBit rate mode : Variable\nBit rate : 978 Kbps\nWidth : 720 pixels\nHeight : 400 pixels\nDisplay aspect ratio : 16:9\nFrame rate mode : Constant\nFrame rate : 25.000 fps\nColor space : YUV\nChroma subsampling : 4:2:0\nBit depth : 8 bits\nScan type : Progressive\nBits/(Pixel*Frame) : 0.136\nStream size : 648 MiB (86%)\nWriting library : x264\n\nAudio\nID : 2\nFormat : AAC\nFormat/Info : Advanced Audio Codec\nFormat version : Version 4\nFormat profile : LC\nCodec ID : 40\nDuration : 1h 32mn\nBit rate mode : Variable\nBit rate : 152 Kbps\nChannel(s) : 2 channels\nChannel positions : Front: L R\nSampling rate : 44.1 KHz\nStream size : 101 MiB (13%)\n\n\nPlot:\nA vengeful father escapes from hell and chases after the men who killed his daughter and kidnapped his granddaughter.\n\n\n\n\n\n================================== &lt;a href=&quot;\nhttp://thepiratebay.se/user/hiest&quot; rel=&quot;nofollow&quot; target=&quot;_NEW&quot;&gt;\nhttp://thepiratebay.se/user/hiest&lt;/a&gt;\n==================================\n\n\n\n\n\nScreen Shots:\n &lt;a href=&quot;\nhttp://www.postimg.com/30000/photo-29747.jpg&quot; rel=&quot;nofollow&quot; target=&quot;_NEW&quot;&gt;\nhttp://www.postimg.com/30000/photo-29747.jpg&lt;/a&gt;\n &lt;a href=&quot;\nhttp://www.postimg.com/30000/photo-29748.jpg&quot; rel=&quot;nofollow&quot; target=&quot;_NEW&quot;&gt;\nhttp://www.postimg.com/30000/photo-29748.jpg&lt;/a&gt;\n &lt;a href=&quot;\nhttp://www.postimg.com/30000/photo-29754.jpg&quot; rel=&quot;nofollow&quot; target=&quot;_NEW&quot;&gt;\nhttp://www.postimg.com/30000/photo-29754.jpg&lt;/a&gt;\n &lt;a href=&quot;\nhttp://www.postimg.com/30000/photo-29752.jpg&quot; rel=&quot;nofollow&quot; target=&quot;_NEW&quot;&gt;\nhttp://www.postimg.com/30000/photo-29752.jpg&lt;/a&gt;\n &lt;a href=&quot;\nhttp://www.postimg.com/30000/photo-29749.jpg&quot; rel=&quot;nofollow&quot; target=&quot;_NEW&quot;&gt;\nhttp://www.postimg.com/30000/photo-29749.jpg&lt;/a&gt;\n &lt;a href=&quot;\nhttp://www.postimg.com/30000/photo-29750.jpg&quot; rel=&quot;nofollow&quot; target=&quot;_NEW&quot;&gt;\nhttp://www.postimg.com/30000/photo-29750.jpg&lt;/a&gt;\n\n\n######## ######## ######## ##          ######## ########  ######## \n##       ##       ##       ##          ##       ##     ## ##       \n##       ##       ##       ##          ##       ##     ## ##       \n######   ######   ######   ##          ######   ########  ######   \n##       ##       ##       ##          ##       ##   ##   ##       \n##       ##       ##       ##          ##       ##    ##  ##       \n##       ######## ######## ########    ##       ##     ## ######## \n","torrent":{"xt":"urn:btih:db25b1600173e7f19191b324524d049335af3a57","amp;dn":"Drive.Angry.2011.TS.x264.Feel-Free","amp;tr":["udp%3A%2F%2Ftracker.openbittorrent.com%3A80","udp%3A%2F%2Fopen.demonii.com%3A1337","udp%3A%2F%2Ftracker.coppersurfer.tk%3A6969","udp%3A%2F%2Fexodus.desync.com%3A6969"],"infoHash":"db25b1600173e7f19191b324524d049335af3a57","infoHashBuffer":{"type":"Buffer","data":[219,37,177,96,1,115,231,241,145,145,179,36,82,77,4,147,53,175,58,87]},"announce":[],"urlList":[]}}